<svg width="14" height="14" viewBox="0 0 14 14" fill="none" xmlns="http://www.w3.org/2000/svg">
<g clip-path="url(#clip0_1274_353)">
<path fill-rule="evenodd" clip-rule="evenodd" d="M11.4848 0.379116C11.4635 0.293146 11.4197 0.214384 11.358 0.15089C11.2962 0.087395 11.2187 0.0414463 11.1333 0.0177445C11.048 -0.00595721 10.9579 -0.00656121 10.8722 0.0159943C10.7866 0.0385499 10.7084 0.0834553 10.6458 0.146116L8.64583 2.14612C8.58484 2.20724 8.54072 2.28312 8.51776 2.36636C8.4948 2.4496 8.4938 2.53737 8.51483 2.62112L8.87483 4.06512L8.86083 4.07912L6.46983 6.47012C6.33735 6.61229 6.26523 6.80034 6.26866 6.99464C6.27209 7.18894 6.3508 7.37433 6.48821 7.51174C6.62563 7.64915 6.81101 7.72786 7.00531 7.73129C7.19961 7.73472 7.38766 7.6626 7.52983 7.53012L9.92283 5.14012L9.93683 5.12512L11.3798 5.48612C11.4636 5.50716 11.5513 5.50615 11.6346 5.48319C11.7178 5.46023 11.7937 5.41611 11.8548 5.35512L13.8548 3.35512C13.9178 3.29254 13.9629 3.21434 13.9856 3.12855C14.0083 3.04276 14.0078 2.95247 13.9841 2.86696C13.9603 2.78144 13.9143 2.70378 13.8506 2.64195C13.787 2.58012 13.708 2.53634 13.6218 2.51512L11.9128 2.08912L11.4848 0.379116ZM7.31683 0.759116C7.33057 0.957486 7.26497 1.15319 7.13446 1.30321C7.00394 1.45323 6.8192 1.54527 6.62083 1.55912C5.57603 1.63152 4.57398 2.00235 3.73374 2.62753C2.8935 3.25271 2.2504 4.10597 1.88085 5.08591C1.5113 6.06586 1.43084 7.13129 1.64903 8.15562C1.86722 9.17995 2.37489 10.1201 3.11171 10.8644C3.84853 11.6087 4.78353 12.1258 5.80561 12.3543C6.82769 12.5828 7.89389 12.513 8.8775 12.1534C9.86111 11.7937 10.7208 11.1592 11.3544 10.3253C11.988 9.49141 12.3689 8.49314 12.4518 7.44912C12.4676 7.25073 12.5616 7.06675 12.713 6.93763C12.8644 6.80851 13.061 6.74484 13.2593 6.76062C13.4577 6.7764 13.6417 6.87034 13.7708 7.02177C13.8999 7.17321 13.9636 7.36973 13.9478 7.56812C13.842 8.89833 13.3566 10.1702 12.5491 11.2327C11.7417 12.2951 10.6463 13.1034 9.39302 13.5616C8.13973 14.0198 6.78125 14.1086 5.47898 13.8174C4.17671 13.5263 2.9854 12.8674 2.04657 11.9191C1.10774 10.9708 0.460865 9.77291 0.182796 8.46779C-0.0952735 7.16266 0.00715259 5.80514 0.477905 4.55651C0.948657 3.30788 1.76795 2.22063 2.83844 1.42394C3.90893 0.627237 5.18562 0.154579 6.51683 0.0621165C6.7152 0.0483778 6.91091 0.113977 7.06093 0.244492C7.21095 0.375007 7.30299 0.560754 7.31683 0.759116ZM6.64483 4.05812C6.68077 4.14984 6.69828 4.24775 6.69637 4.34625C6.69446 4.44474 6.67316 4.5419 6.63369 4.63216C6.59423 4.72242 6.53736 4.80403 6.46635 4.87231C6.39534 4.94059 6.31157 4.99421 6.21983 5.03012C5.89188 5.15876 5.60115 5.3671 5.37392 5.63631C5.1467 5.90552 4.99015 6.22711 4.91841 6.57202C4.84667 6.91692 4.86202 7.27426 4.96306 7.61175C5.0641 7.94923 5.24764 8.25622 5.49711 8.50496C5.74658 8.7537 6.0541 8.93635 6.39187 9.03641C6.72965 9.13646 7.08704 9.15077 7.43173 9.07803C7.77643 9.00529 8.09756 8.8478 8.36611 8.61979C8.63465 8.39178 8.84215 8.10045 8.96983 7.77212C9.00555 7.68032 9.059 7.59646 9.12713 7.52533C9.19526 7.45419 9.27673 7.39717 9.3669 7.35752C9.45707 7.31787 9.55416 7.29636 9.65263 7.29423C9.75111 7.29211 9.84904 7.3094 9.94083 7.34512C10.0326 7.38084 10.1165 7.43429 10.1876 7.50241C10.2588 7.57054 10.3158 7.65202 10.3554 7.74218C10.3951 7.83235 10.4166 7.92944 10.4187 8.02792C10.4208 8.12639 10.4036 8.22432 10.3678 8.31612C10.1497 8.8768 9.79534 9.37428 9.33669 9.7636C8.87803 10.1529 8.32958 10.4218 7.74091 10.5459C7.15225 10.67 6.54193 10.6455 5.96514 10.4745C5.38835 10.3035 4.86327 9.9914 4.43737 9.5665C4.01147 9.1416 3.69818 8.61725 3.52583 8.04086C3.35347 7.46447 3.32749 6.85422 3.45022 6.26526C3.57295 5.67631 3.84054 5.12723 4.22877 4.66766C4.61701 4.20809 5.11367 3.85253 5.67383 3.63312C5.85897 3.56085 6.06521 3.56502 6.24727 3.64471C6.42933 3.7244 6.57232 3.87308 6.64483 4.05812Z" fill="white"/>
</g>
<defs>
<clipPath id="clip0_1274_353">
<rect width="14" height="14" fill="white"/>
</clipPath>
</defs>
</svg>
